<svg width="473" height="301" viewBox="0 0 473 301" fill="none" xmlns="http://www.w3.org/2000/svg">
  <path d="M37.7775 21.6006C41.8253 21.6006 45.3626 22.4029 48.3893 24.0074C51.416 25.6119 53.7499 27.8729 55.3909 30.7902C57.0684 33.6711 57.9071 37.0078 57.9071 40.8003C57.9071 44.5564 57.0684 47.8931 55.3909 50.8104C53.7499 53.7277 51.3978 55.9887 48.3346 57.5932C45.3079 59.1977 41.7888 60 37.7775 60H23.3914V21.6006H37.7775ZM37.1758 51.9044C40.7131 51.9044 43.4663 50.938 45.4355 49.0053C47.4047 47.0726 48.3893 44.3376 48.3893 40.8003C48.3893 37.263 47.4047 34.5098 45.4355 32.5406C43.4663 30.5714 40.7131 29.5868 37.1758 29.5868H32.7451V51.9044H37.1758ZM91.9066 44.2464C91.9066 45.1216 91.8519 46.0333 91.7425 46.9814H70.5736C70.7194 48.8777 71.3211 50.3363 72.3787 51.3574C73.4727 52.342 74.8037 52.8343 76.3718 52.8343C78.7056 52.8343 80.3284 51.8497 81.2401 49.8805H91.1955C90.6849 51.8862 89.755 53.6913 88.4058 55.2958C87.093 56.9003 85.4337 58.1584 83.4281 59.0701C81.4224 59.9818 79.1797 60.4376 76.7 60.4376C73.7097 60.4376 71.0476 59.7994 68.7138 58.5231C66.3799 57.2468 64.5566 55.4234 63.2438 53.0531C61.931 50.6828 61.2746 47.9113 61.2746 44.7387C61.2746 41.5661 61.9127 38.7946 63.1891 36.4243C64.5019 34.054 66.3252 32.2306 68.6591 30.9543C70.9929 29.678 73.6732 29.0398 76.7 29.0398C79.6538 29.0398 82.2794 29.6597 84.5768 30.8996C86.8742 32.1395 88.661 33.9081 89.9374 36.2055C91.2502 38.5029 91.9066 41.1832 91.9066 44.2464ZM82.3341 41.7849C82.3341 40.1804 81.7871 38.904 80.6931 37.9559C79.5991 37.0078 78.2316 36.5337 76.5906 36.5337C75.0225 36.5337 73.6915 36.9895 72.5975 37.9012C71.5399 38.8129 70.8835 40.1074 70.6283 41.7849H82.3341ZM109.258 60.4376C106.596 60.4376 104.226 59.9818 102.147 59.0701C100.068 58.1584 98.4274 56.9186 97.224 55.3505C96.0206 53.746 95.346 51.9591 95.2001 49.9899H104.444C104.554 51.0474 105.046 51.9044 105.921 52.5608C106.797 53.2172 107.872 53.5454 109.149 53.5454C110.316 53.5454 111.209 53.3266 111.829 52.889C112.485 52.4149 112.814 51.8132 112.814 51.0839C112.814 50.2087 112.358 49.5705 111.446 49.1694C110.534 48.7318 109.057 48.2577 107.015 47.7472C104.827 47.2367 103.004 46.7079 101.545 46.1609C100.087 45.5774 98.8285 44.684 97.771 43.4806C96.7135 42.2407 96.1847 40.5815 96.1847 38.5029C96.1847 36.7525 96.6588 35.1662 97.6069 33.744C98.5915 32.2853 100.014 31.1366 101.874 30.2979C103.77 29.4592 106.012 29.0398 108.602 29.0398C112.431 29.0398 115.439 29.9879 117.627 31.8842C119.852 33.7805 121.128 36.2967 121.456 39.4328H112.814C112.668 38.3753 112.194 37.5365 111.391 36.9166C110.626 36.2967 109.604 35.9867 108.328 35.9867C107.234 35.9867 106.395 36.2055 105.812 36.6431C105.228 37.0442 104.937 37.6095 104.937 38.3388C104.937 39.214 105.393 39.8704 106.304 40.308C107.252 40.7456 108.711 41.1832 110.68 41.6208C112.941 42.2043 114.783 42.7877 116.205 43.3712C117.627 43.9182 118.867 44.8299 119.925 46.1062C121.019 47.3461 121.584 49.0235 121.62 51.1386C121.62 52.9255 121.11 54.53 120.089 55.9522C119.104 57.3379 117.664 58.4319 115.767 59.2342C113.908 60.0365 111.738 60.4376 109.258 60.4376ZM132.047 26.3048C130.406 26.3048 129.057 25.8307 127.999 24.8826C126.978 23.898 126.468 22.6946 126.468 21.2724C126.468 19.8137 126.978 18.6103 127.999 17.6622C129.057 16.6776 130.406 16.1853 132.047 16.1853C133.652 16.1853 134.964 16.6776 135.985 17.6622C137.043 18.6103 137.572 19.8137 137.572 21.2724C137.572 22.6946 137.043 23.898 135.985 24.8826C134.964 25.8307 133.652 26.3048 132.047 26.3048ZM136.696 29.4774V60H127.343V29.4774H136.696ZM155.071 29.0398C157.223 29.0398 159.101 29.4774 160.705 30.3526C162.346 31.2278 163.605 32.3765 164.48 33.7987V29.4774H173.833V59.9453C173.833 62.7532 173.268 65.2877 172.138 67.5486C171.044 69.846 169.348 71.6693 167.051 73.0186C164.79 74.3679 161.964 75.0425 158.572 75.0425C154.05 75.0425 150.385 73.9667 147.577 71.8152C144.77 69.7001 143.165 66.8193 142.764 63.1726H152.008C152.3 64.3395 152.993 65.2512 154.087 65.9076C155.181 66.6005 156.53 66.9469 158.135 66.9469C160.067 66.9469 161.599 66.3817 162.729 65.2512C163.896 64.1572 164.48 62.3886 164.48 59.9453V55.624C163.568 57.0462 162.31 58.2131 160.705 59.1248C159.101 60 157.223 60.4376 155.071 60.4376C152.555 60.4376 150.276 59.7994 148.234 58.5231C146.192 57.2103 144.569 55.3687 143.366 52.9984C142.199 50.5916 141.615 47.8201 141.615 44.684C141.615 41.5479 142.199 38.7946 143.366 36.4243C144.569 34.054 146.192 32.2306 148.234 30.9543C150.276 29.678 152.555 29.0398 155.071 29.0398ZM164.48 44.7387C164.48 42.4048 163.823 40.5633 162.511 39.214C161.234 37.8647 159.666 37.1901 157.806 37.1901C155.947 37.1901 154.36 37.8647 153.047 39.214C151.771 40.5268 151.133 42.3501 151.133 44.684C151.133 47.0179 151.771 48.8777 153.047 50.2634C154.36 51.6127 155.947 52.2873 157.806 52.2873C159.666 52.2873 161.234 51.6127 162.511 50.2634C163.823 48.9141 164.48 47.0726 164.48 44.7387ZM199.198 29.1492C202.772 29.1492 205.617 30.3161 207.732 32.65C209.883 34.9474 210.959 38.12 210.959 42.1678V60H201.66V43.4259C201.66 41.3838 201.131 39.7975 200.074 38.667C199.016 37.5365 197.594 36.9713 195.807 36.9713C194.02 36.9713 192.598 37.5365 191.54 38.667C190.483 39.7975 189.954 41.3838 189.954 43.4259V60H180.6V29.4774H189.954V33.5252C190.902 32.1759 192.179 31.1184 193.783 30.3526C195.388 29.5503 197.193 29.1492 199.198 29.1492ZM221.835 60.4376C220.194 60.4376 218.845 59.9635 217.787 59.0154C216.766 58.0308 216.255 56.8274 216.255 55.4052C216.255 53.9465 216.766 52.7249 217.787 51.7403C218.845 50.7557 220.194 50.2634 221.835 50.2634C223.439 50.2634 224.752 50.7557 225.773 51.7403C226.831 52.7249 227.36 53.9465 227.36 55.4052C227.36 56.8274 226.831 58.0308 225.773 59.0154C224.752 59.9635 223.439 60.4376 221.835 60.4376Z" fill="#FAB717" />
  <path d="M22.914 83.9916V108H17.0658V98.1162H7.9686V108H2.1204V83.9916H7.9686V93.3966H17.0658V83.9916H22.914ZM39.3794 108L34.3862 98.937H32.984V108H27.1358V83.9916H36.9512C38.8436 83.9916 40.451 84.3222 41.7734 84.9834C43.1186 85.6446 44.1218 86.5566 44.783 87.7194C45.4442 88.8594 45.7748 90.1362 45.7748 91.5498C45.7748 93.1458 45.3188 94.5708 44.4068 95.8248C43.5176 97.0788 42.1952 97.968 40.4396 98.4924L45.98 108H39.3794ZM32.984 94.7988H36.6092C37.6808 94.7988 38.4788 94.5366 39.0032 94.0122C39.5504 93.4878 39.824 92.7468 39.824 91.7892C39.824 90.8772 39.5504 90.159 39.0032 89.6346C38.4788 89.1102 37.6808 88.848 36.6092 88.848H32.984V94.7988ZM52.182 108.274C51.156 108.274 50.3124 107.977 49.6512 107.384C49.0128 106.769 48.6936 106.016 48.6936 105.127C48.6936 104.215 49.0128 103.451 49.6512 102.836C50.3124 102.22 51.156 101.912 52.182 101.912C53.1852 101.912 54.006 102.22 54.6444 102.836C55.3056 103.451 55.6362 104.215 55.6362 105.127C55.6362 106.016 55.3056 106.769 54.6444 107.384C54.006 107.977 53.1852 108.274 52.182 108.274Z" fill="#3C3C3C" />
  <path d="M97.6559 82.9628C97.6559 85.1873 97.1454 87.2294 96.1243 89.0892C95.1032 90.9125 93.5352 92.3894 91.4201 93.5199C89.305 94.6504 86.6794 95.2156 83.5433 95.2156H77.7451V109H68.3914V70.6006H83.5433C86.6065 70.6006 89.1956 71.1294 91.3107 72.1869C93.4258 73.2444 95.0121 74.7031 96.0696 76.5629C97.1271 78.4227 97.6559 80.556 97.6559 82.9628ZM82.8322 87.7764C84.6191 87.7764 85.9501 87.357 86.8253 86.5183C87.7005 85.6796 88.1381 84.4944 88.1381 82.9628C88.1381 81.4312 87.7005 80.246 86.8253 79.4073C85.9501 78.5686 84.6191 78.1492 82.8322 78.1492H77.7451V87.7764H82.8322ZM111.879 83.5645C112.973 81.887 114.341 80.5742 115.982 79.6261C117.623 78.6415 119.446 78.1492 121.452 78.1492V88.0499H118.881C116.547 88.0499 114.797 88.5604 113.63 89.5815C112.463 90.5661 111.879 92.3165 111.879 94.8327V109H102.525V78.4774H111.879V83.5645ZM154.695 93.2464C154.695 94.1216 154.64 95.0333 154.531 95.9814H133.362C133.508 97.8777 134.109 99.3363 135.167 100.357C136.261 101.342 137.592 101.834 139.16 101.834C141.494 101.834 143.117 100.85 144.028 98.8805H153.984C153.473 100.886 152.543 102.691 151.194 104.296C149.881 105.9 148.222 107.158 146.216 108.07C144.211 108.982 141.968 109.438 139.488 109.438C136.498 109.438 133.836 108.799 131.502 107.523C129.168 106.247 127.345 104.423 126.032 102.053C124.719 99.6828 124.063 96.9113 124.063 93.7387C124.063 90.5661 124.701 87.7946 125.977 85.4243C127.29 83.054 129.113 81.2306 131.447 79.9543C133.781 78.678 136.461 78.0398 139.488 78.0398C142.442 78.0398 145.068 78.6597 147.365 79.8996C149.662 81.1395 151.449 82.9081 152.726 85.2055C154.038 87.5029 154.695 90.1832 154.695 93.2464ZM145.122 90.7849C145.122 89.1804 144.575 87.904 143.481 86.9559C142.387 86.0078 141.02 85.5337 139.379 85.5337C137.811 85.5337 136.48 85.9895 135.386 86.9012C134.328 87.8129 133.672 89.1074 133.416 90.7849H145.122ZM172.046 109.438C169.384 109.438 167.014 108.982 164.935 108.07C162.857 107.158 161.216 105.919 160.012 104.35C158.809 102.746 158.134 100.959 157.988 98.9899H167.233C167.342 100.047 167.834 100.904 168.709 101.561C169.585 102.217 170.66 102.545 171.937 102.545C173.104 102.545 173.997 102.327 174.617 101.889C175.273 101.415 175.602 100.813 175.602 100.084C175.602 99.2087 175.146 98.5705 174.234 98.1694C173.323 97.7318 171.846 97.2577 169.803 96.7472C167.615 96.2367 165.792 95.7079 164.333 95.1609C162.875 94.5774 161.617 93.684 160.559 92.4806C159.502 91.2407 158.973 89.5815 158.973 87.5029C158.973 85.7525 159.447 84.1662 160.395 82.744C161.38 81.2853 162.802 80.1366 164.662 79.2979C166.558 78.4592 168.801 78.0398 171.39 78.0398C175.219 78.0398 178.227 78.9879 180.415 80.8842C182.64 82.7805 183.916 85.2967 184.244 88.4328H175.602C175.456 87.3753 174.982 86.5365 174.179 85.9166C173.414 85.2967 172.393 84.9867 171.116 84.9867C170.022 84.9867 169.184 85.2055 168.6 85.6431C168.017 86.0442 167.725 86.6095 167.725 87.3388C167.725 88.214 168.181 88.8704 169.092 89.308C170.041 89.7456 171.499 90.1832 173.468 90.6208C175.729 91.2043 177.571 91.7877 178.993 92.3712C180.415 92.9182 181.655 93.8299 182.713 95.1062C183.807 96.3461 184.372 98.0235 184.408 100.139C184.408 101.925 183.898 103.53 182.877 104.952C181.892 106.338 180.452 107.432 178.555 108.234C176.696 109.036 174.526 109.438 172.046 109.438ZM218.903 93.2464C218.903 94.1216 218.848 95.0333 218.739 95.9814H197.57C197.716 97.8777 198.318 99.3363 199.375 100.357C200.469 101.342 201.8 101.834 203.368 101.834C205.702 101.834 207.325 100.85 208.237 98.8805H218.192C217.682 100.886 216.752 102.691 215.402 104.296C214.09 105.9 212.43 107.158 210.425 108.07C208.419 108.982 206.176 109.438 203.697 109.438C200.706 109.438 198.044 108.799 195.71 107.523C193.376 106.247 191.553 104.423 190.24 102.053C188.928 99.6828 188.271 96.9113 188.271 93.7387C188.271 90.5661 188.909 87.7946 190.186 85.4243C191.498 83.054 193.322 81.2306 195.656 79.9543C197.99 78.678 200.67 78.0398 203.697 78.0398C206.65 78.0398 209.276 78.6597 211.573 79.8996C213.871 81.1395 215.658 82.9081 216.934 85.2055C218.247 87.5029 218.903 90.1832 218.903 93.2464ZM209.331 90.7849C209.331 89.1804 208.784 87.904 207.69 86.9559C206.596 86.0078 205.228 85.5337 203.587 85.5337C202.019 85.5337 200.688 85.9895 199.594 86.9012C198.537 87.8129 197.88 89.1074 197.625 90.7849H209.331ZM242.436 78.1492C246.009 78.1492 248.854 79.3161 250.969 81.65C253.12 83.9474 254.196 87.12 254.196 91.1678V109H244.897V92.4259C244.897 90.3838 244.368 88.7975 243.311 87.667C242.253 86.5365 240.831 85.9713 239.044 85.9713C237.257 85.9713 235.835 86.5365 234.778 87.667C233.72 88.7975 233.191 90.3838 233.191 92.4259V109H223.838V78.4774H233.191V82.5252C234.14 81.1759 235.416 80.1184 237.02 79.3526C238.625 78.5503 240.43 78.1492 242.436 78.1492ZM277.708 101.068V109H272.949C269.557 109 266.914 108.179 265.017 106.538C263.121 104.861 262.173 102.144 262.173 98.3882V86.2448H258.453V78.4774H262.173V71.0382H271.527V78.4774H277.653V86.2448H271.527V98.4976C271.527 99.4093 271.745 100.066 272.183 100.467C272.621 100.868 273.35 101.068 274.371 101.068H277.708ZM281.058 93.684C281.058 90.5479 281.642 87.7946 282.809 85.4243C284.012 83.054 285.635 81.2306 287.677 79.9543C289.719 78.678 291.998 78.0398 294.514 78.0398C296.666 78.0398 298.544 78.4774 300.148 79.3526C301.789 80.2278 303.048 81.3765 303.923 82.7987V78.4774H313.276V109H303.923V104.679C303.011 106.101 301.735 107.25 300.094 108.125C298.489 109 296.611 109.438 294.46 109.438C291.98 109.438 289.719 108.799 287.677 107.523C285.635 106.21 284.012 104.369 282.809 101.998C281.642 99.5916 281.058 96.8201 281.058 93.684ZM303.923 93.7387C303.923 91.4048 303.266 89.5633 301.954 88.214C300.677 86.8647 299.109 86.1901 297.249 86.1901C295.39 86.1901 293.803 86.8647 292.49 88.214C291.214 89.5268 290.576 91.3501 290.576 93.684C290.576 96.0179 291.214 97.8777 292.49 99.2634C293.803 100.613 295.39 101.287 297.249 101.287C299.109 101.287 300.677 100.613 301.954 99.2634C303.266 97.9141 303.923 96.0726 303.923 93.7387ZM337.055 101.068V109H332.296C328.905 109 326.261 108.179 324.365 106.538C322.468 104.861 321.52 102.144 321.52 98.3882V86.2448H317.801V78.4774H321.52V71.0382H330.874V78.4774H337V86.2448H330.874V98.4976C330.874 99.4093 331.093 100.066 331.53 100.467C331.968 100.868 332.697 101.068 333.718 101.068H337.055ZM346.97 75.3048C345.329 75.3048 343.979 74.8307 342.922 73.8826C341.901 72.898 341.39 71.6946 341.39 70.2724C341.39 68.8137 341.901 67.6103 342.922 66.6622C343.979 65.6776 345.329 65.1853 346.97 65.1853C348.574 65.1853 349.887 65.6776 350.908 66.6622C351.965 67.6103 352.494 68.8137 352.494 70.2724C352.494 71.6946 351.965 72.898 350.908 73.8826C349.887 74.8307 348.574 75.3048 346.97 75.3048ZM351.619 78.4774V109H342.265V78.4774H351.619ZM372.291 109.438C369.301 109.438 366.603 108.799 364.196 107.523C361.825 106.247 359.947 104.423 358.562 102.053C357.212 99.6828 356.538 96.9113 356.538 93.7387C356.538 90.6026 357.231 87.8493 358.616 85.479C360.002 83.0722 361.898 81.2306 364.305 79.9543C366.712 78.678 369.41 78.0398 372.401 78.0398C375.391 78.0398 378.09 78.678 380.496 79.9543C382.903 81.2306 384.799 83.0722 386.185 85.479C387.571 87.8493 388.264 90.6026 388.264 93.7387C388.264 96.8748 387.553 99.6463 386.13 102.053C384.745 104.423 382.83 106.247 380.387 107.523C377.98 108.799 375.282 109.438 372.291 109.438ZM372.291 101.342C374.078 101.342 375.592 100.686 376.831 99.3728C378.108 98.06 378.746 96.182 378.746 93.7387C378.746 91.2954 378.126 89.4174 376.886 88.1046C375.683 86.7918 374.188 86.1354 372.401 86.1354C370.577 86.1354 369.064 86.7918 367.861 88.1046C366.657 89.3809 366.056 91.259 366.056 93.7387C366.056 96.182 366.639 98.06 367.806 99.3728C369.009 100.686 370.504 101.342 372.291 101.342ZM411.824 78.1492C415.398 78.1492 418.242 79.3161 420.357 81.65C422.509 83.9474 423.585 87.12 423.585 91.1678V109H414.286V92.4259C414.286 90.3838 413.757 88.7975 412.699 87.667C411.642 86.5365 410.22 85.9713 408.433 85.9713C406.646 85.9713 405.224 86.5365 404.166 87.667C403.109 88.7975 402.58 90.3838 402.58 92.4259V109H393.226V78.4774H402.58V82.5252C403.528 81.1759 404.804 80.1184 406.409 79.3526C408.013 78.5503 409.818 78.1492 411.824 78.1492ZM442.501 109.438C439.839 109.438 437.469 108.982 435.39 108.07C433.312 107.158 431.671 105.919 430.467 104.35C429.264 102.746 428.589 100.959 428.443 98.9899H437.688C437.797 100.047 438.289 100.904 439.165 101.561C440.04 102.217 441.116 102.545 442.392 102.545C443.559 102.545 444.452 102.327 445.072 101.889C445.729 101.415 446.057 100.813 446.057 100.084C446.057 99.2087 445.601 98.5705 444.689 98.1694C443.778 97.7318 442.301 97.2577 440.259 96.7472C438.071 96.2367 436.247 95.7079 434.789 95.1609C433.33 94.5774 432.072 93.684 431.014 92.4806C429.957 91.2407 429.428 89.5815 429.428 87.5029C429.428 85.7525 429.902 84.1662 430.85 82.744C431.835 81.2853 433.257 80.1366 435.117 79.2979C437.013 78.4592 439.256 78.0398 441.845 78.0398C445.674 78.0398 448.682 78.9879 450.87 80.8842C453.095 82.7805 454.371 85.2967 454.699 88.4328H446.057C445.911 87.3753 445.437 86.5365 444.635 85.9166C443.869 85.2967 442.848 84.9867 441.571 84.9867C440.477 84.9867 439.639 85.2055 439.055 85.6431C438.472 86.0442 438.18 86.6095 438.18 87.3388C438.18 88.214 438.636 88.8704 439.548 89.308C440.496 89.7456 441.954 90.1832 443.924 90.6208C446.185 91.2043 448.026 91.7877 449.448 92.3712C450.87 92.9182 452.11 93.8299 453.168 95.1062C454.262 96.3461 454.827 98.0235 454.864 100.139C454.864 101.925 454.353 103.53 453.332 104.952C452.347 106.338 450.907 107.432 449.011 108.234C447.151 109.036 444.981 109.438 442.501 109.438ZM464.962 109.438C463.321 109.438 461.972 108.964 460.914 108.015C459.893 107.031 459.383 105.827 459.383 104.405C459.383 102.947 459.893 101.725 460.914 100.74C461.972 99.7557 463.321 99.2634 464.962 99.2634C466.567 99.2634 467.879 99.7557 468.901 100.74C469.958 101.725 470.487 102.947 470.487 104.405C470.487 105.827 469.958 107.031 468.901 108.015C467.879 108.964 466.567 109.438 464.962 109.438Z" fill="#EF503E" />
  <path d="M74.8816 130.744C74.1887 129.468 73.1859 128.501 71.8731 127.845C70.5968 127.152 69.0834 126.806 67.333 126.806C64.3063 126.806 61.8812 127.808 60.0579 129.814C58.2346 131.783 57.3229 134.427 57.3229 137.746C57.3229 141.283 58.271 144.054 60.1673 146.06C62.1 148.029 64.7439 149.014 68.0988 149.014C70.3962 149.014 72.3289 148.43 73.897 147.263C75.5015 146.096 76.6685 144.419 77.3978 142.231H65.5279V135.339H85.8763V144.036C85.1834 146.37 83.9983 148.54 82.3208 150.545C80.6798 152.551 78.583 154.174 76.0303 155.414C73.4776 156.654 70.5968 157.274 67.3877 157.274C63.5952 157.274 60.2038 156.453 57.2135 154.812C54.2597 153.135 51.9441 150.819 50.2666 147.865C48.6256 144.911 47.8051 141.538 47.8051 137.746C47.8051 133.953 48.6256 130.58 50.2666 127.626C51.9441 124.636 54.2597 122.32 57.2135 120.679C60.1673 119.002 63.5405 118.163 67.333 118.163C71.9278 118.163 75.7933 119.275 78.9294 121.5C82.102 123.724 84.1988 126.806 85.2199 130.744H74.8816ZM100.411 131.564C101.505 129.887 102.873 128.574 104.514 127.626C106.155 126.641 107.978 126.149 109.984 126.149V136.05H107.413C105.079 136.05 103.328 136.56 102.162 137.581C100.995 138.566 100.411 140.316 100.411 142.833V157H91.0574V126.477H100.411V131.564ZM128.348 157.438C125.358 157.438 122.659 156.799 120.253 155.523C117.882 154.247 116.004 152.423 114.619 150.053C113.269 147.683 112.595 144.911 112.595 141.739C112.595 138.603 113.288 135.849 114.673 133.479C116.059 131.072 117.955 129.231 120.362 127.954C122.769 126.678 125.467 126.04 128.458 126.04C131.448 126.04 134.146 126.678 136.553 127.954C138.96 129.231 140.856 131.072 142.242 133.479C143.628 135.849 144.321 138.603 144.321 141.739C144.321 144.875 143.61 147.646 142.187 150.053C140.802 152.423 138.887 154.247 136.444 155.523C134.037 156.799 131.339 157.438 128.348 157.438ZM128.348 149.342C130.135 149.342 131.649 148.686 132.888 147.373C134.165 146.06 134.803 144.182 134.803 141.739C134.803 139.295 134.183 137.417 132.943 136.105C131.74 134.792 130.245 134.135 128.458 134.135C126.634 134.135 125.121 134.792 123.918 136.105C122.714 137.381 122.112 139.259 122.112 141.739C122.112 144.182 122.696 146.06 123.863 147.373C125.066 148.686 126.561 149.342 128.348 149.342ZM193.098 126.477L184.838 157H174.5L169.686 137.199L164.708 157H154.425L146.11 126.477H155.464L159.785 148.303L164.927 126.477H174.828L180.024 148.193L184.291 126.477H193.098ZM213.676 149.068V157H208.918C205.526 157 202.882 156.179 200.986 154.538C199.09 152.861 198.142 150.144 198.142 146.388V134.245H194.422V126.477H198.142V119.038H207.495V126.477H213.622V134.245H207.495V146.498C207.495 147.409 207.714 148.066 208.152 148.467C208.589 148.868 209.319 149.068 210.34 149.068H213.676ZM237.649 126.149C241.15 126.149 243.957 127.316 246.073 129.65C248.188 131.947 249.245 135.12 249.245 139.168V157H239.946V140.426C239.946 138.384 239.417 136.797 238.36 135.667C237.302 134.537 235.88 133.971 234.093 133.971C232.306 133.971 230.884 134.537 229.827 135.667C228.769 136.797 228.24 138.384 228.24 140.426V157H218.887V116.522H228.24V130.58C229.188 129.231 230.483 128.155 232.124 127.353C233.765 126.55 235.607 126.149 237.649 126.149ZM260.121 157.438C258.48 157.438 257.131 156.964 256.073 156.015C255.052 155.031 254.542 153.827 254.542 152.405C254.542 150.947 255.052 149.725 256.073 148.74C257.131 147.756 258.48 147.263 260.121 147.263C261.726 147.263 263.038 147.756 264.059 148.74C265.117 149.725 265.646 150.947 265.646 152.405C265.646 153.827 265.117 155.031 264.059 156.015C263.038 156.964 261.726 157.438 260.121 157.438Z" fill="#41BB88" />
  <path d="M291.928 152.284H286.19L285.271 155H281.35L286.913 139.626H291.249L296.812 155H292.848L291.928 152.284ZM290.965 149.394L289.059 143.765L287.176 149.394H290.965ZM297.76 148.868C297.76 147.612 297.994 146.51 298.461 145.561C298.943 144.612 299.592 143.882 300.41 143.371C301.228 142.86 302.14 142.605 303.148 142.605C303.951 142.605 304.681 142.772 305.338 143.108C306.009 143.444 306.535 143.897 306.914 144.466V138.794H310.659V155H306.914V153.248C306.564 153.832 306.06 154.299 305.403 154.65C304.761 155 304.009 155.175 303.148 155.175C302.14 155.175 301.228 154.92 300.41 154.409C299.592 153.883 298.943 153.146 298.461 152.197C297.994 151.233 297.76 150.124 297.76 148.868ZM306.914 148.89C306.914 147.955 306.652 147.218 306.126 146.678C305.615 146.138 304.987 145.868 304.243 145.868C303.498 145.868 302.863 146.138 302.337 146.678C301.826 147.204 301.571 147.934 301.571 148.868C301.571 149.802 301.826 150.547 302.337 151.102C302.863 151.642 303.498 151.912 304.243 151.912C304.987 151.912 305.615 151.642 306.126 151.102C306.652 150.562 306.914 149.824 306.914 148.89ZM318.865 151.496L321.515 142.78H325.501L321.165 155H316.544L312.208 142.78H316.216L318.865 151.496ZM338.597 148.693C338.597 149.043 338.575 149.408 338.531 149.788H330.056C330.114 150.547 330.355 151.131 330.779 151.54C331.217 151.934 331.749 152.131 332.377 152.131C333.312 152.131 333.961 151.737 334.326 150.949H338.312C338.108 151.751 337.735 152.474 337.195 153.117C336.67 153.759 336.005 154.263 335.202 154.628C334.399 154.993 333.501 155.175 332.509 155.175C331.311 155.175 330.246 154.92 329.311 154.409C328.377 153.898 327.647 153.168 327.121 152.219C326.596 151.27 326.333 150.16 326.333 148.89C326.333 147.62 326.588 146.51 327.099 145.561C327.625 144.612 328.355 143.882 329.289 143.371C330.224 142.86 331.297 142.605 332.509 142.605C333.691 142.605 334.742 142.853 335.662 143.349C336.582 143.846 337.297 144.554 337.808 145.473C338.334 146.393 338.597 147.466 338.597 148.693ZM334.764 147.707C334.764 147.065 334.545 146.554 334.107 146.174C333.669 145.795 333.122 145.605 332.465 145.605C331.837 145.605 331.304 145.787 330.866 146.152C330.443 146.517 330.18 147.036 330.078 147.707H334.764ZM344.317 144.816C344.755 144.145 345.303 143.619 345.96 143.24C346.617 142.846 347.347 142.648 348.15 142.648V146.612H347.121C346.186 146.612 345.485 146.817 345.018 147.225C344.551 147.62 344.317 148.32 344.317 149.328V155H340.572V142.78H344.317V144.816ZM356.751 151.824V155H354.845C353.488 155 352.429 154.671 351.67 154.014C350.911 153.343 350.531 152.255 350.531 150.751V145.89H349.042V142.78H350.531V139.801H354.276V142.78H356.729V145.89H354.276V150.795C354.276 151.16 354.364 151.423 354.539 151.584C354.714 151.744 355.006 151.824 355.415 151.824H356.751ZM360.72 141.51C360.063 141.51 359.523 141.32 359.1 140.94C358.691 140.546 358.486 140.064 358.486 139.495C358.486 138.911 358.691 138.429 359.1 138.049C359.523 137.655 360.063 137.458 360.72 137.458C361.363 137.458 361.888 137.655 362.297 138.049C362.72 138.429 362.932 138.911 362.932 139.495C362.932 140.064 362.72 140.546 362.297 140.94C361.888 141.32 361.363 141.51 360.72 141.51ZM362.582 142.78V155H358.837V142.78H362.582ZM370.267 155.175C369.201 155.175 368.252 154.993 367.42 154.628C366.588 154.263 365.931 153.766 365.449 153.139C364.967 152.496 364.697 151.781 364.638 150.992H368.34C368.383 151.416 368.58 151.759 368.931 152.022C369.281 152.284 369.712 152.416 370.223 152.416C370.69 152.416 371.048 152.328 371.296 152.153C371.559 151.963 371.69 151.722 371.69 151.43C371.69 151.08 371.508 150.824 371.143 150.664C370.778 150.489 370.186 150.299 369.369 150.094C368.493 149.89 367.763 149.678 367.179 149.459C366.595 149.226 366.091 148.868 365.668 148.386C365.244 147.89 365.033 147.225 365.033 146.393C365.033 145.692 365.222 145.057 365.602 144.488C365.996 143.904 366.566 143.444 367.31 143.108C368.069 142.772 368.967 142.605 370.004 142.605C371.537 142.605 372.741 142.984 373.617 143.743C374.508 144.503 375.019 145.51 375.15 146.766H371.69C371.632 146.342 371.442 146.006 371.121 145.758C370.814 145.51 370.405 145.386 369.894 145.386C369.456 145.386 369.121 145.473 368.887 145.649C368.653 145.809 368.537 146.036 368.537 146.328C368.537 146.678 368.719 146.941 369.084 147.116C369.464 147.291 370.048 147.466 370.836 147.642C371.741 147.875 372.479 148.109 373.048 148.342C373.617 148.561 374.114 148.926 374.537 149.437C374.975 149.934 375.202 150.605 375.216 151.452C375.216 152.168 375.012 152.81 374.603 153.379C374.209 153.934 373.632 154.372 372.873 154.693C372.128 155.015 371.26 155.175 370.267 155.175ZM393.1 142.648C394.619 142.648 395.823 143.108 396.714 144.028C397.619 144.948 398.071 146.225 398.071 147.861V155H394.348V148.364C394.348 147.576 394.137 146.97 393.713 146.547C393.305 146.109 392.735 145.89 392.005 145.89C391.275 145.89 390.698 146.109 390.275 146.547C389.866 146.97 389.662 147.576 389.662 148.364V155H385.939V148.364C385.939 147.576 385.727 146.97 385.304 146.547C384.895 146.109 384.326 145.89 383.596 145.89C382.866 145.89 382.289 146.109 381.865 146.547C381.457 146.97 381.252 147.576 381.252 148.364V155H377.507V142.78H381.252V144.313C381.632 143.802 382.128 143.4 382.741 143.108C383.355 142.802 384.048 142.648 384.822 142.648C385.742 142.648 386.559 142.846 387.275 143.24C388.005 143.634 388.574 144.196 388.983 144.926C389.406 144.254 389.983 143.707 390.713 143.283C391.443 142.86 392.239 142.648 393.1 142.648ZM412.21 148.693C412.21 149.043 412.188 149.408 412.144 149.788H403.669C403.727 150.547 403.968 151.131 404.392 151.54C404.83 151.934 405.363 152.131 405.99 152.131C406.925 152.131 407.574 151.737 407.939 150.949H411.925C411.721 151.751 411.349 152.474 410.808 153.117C410.283 153.759 409.618 154.263 408.815 154.628C408.012 154.993 407.115 155.175 406.122 155.175C404.925 155.175 403.859 154.92 402.924 154.409C401.99 153.898 401.26 153.168 400.734 152.219C400.209 151.27 399.946 150.16 399.946 148.89C399.946 147.62 400.201 146.51 400.712 145.561C401.238 144.612 401.968 143.882 402.902 143.371C403.837 142.86 404.91 142.605 406.122 142.605C407.304 142.605 408.356 142.853 409.275 143.349C410.195 143.846 410.911 144.554 411.422 145.473C411.947 146.393 412.21 147.466 412.21 148.693ZM408.377 147.707C408.377 147.065 408.158 146.554 407.72 146.174C407.282 145.795 406.735 145.605 406.078 145.605C405.45 145.605 404.917 145.787 404.479 146.152C404.056 146.517 403.793 147.036 403.691 147.707H408.377ZM416.069 141.51C415.412 141.51 414.872 141.32 414.448 140.94C414.04 140.546 413.835 140.064 413.835 139.495C413.835 138.911 414.04 138.429 414.448 138.049C414.872 137.655 415.412 137.458 416.069 137.458C416.711 137.458 417.237 137.655 417.646 138.049C418.069 138.429 418.281 138.911 418.281 139.495C418.281 140.064 418.069 140.546 417.646 140.94C417.237 141.32 416.711 141.51 416.069 141.51ZM417.93 142.78V155H414.186V142.78H417.93ZM428.09 142.648C429.521 142.648 430.66 143.116 431.507 144.05C432.368 144.97 432.799 146.24 432.799 147.861V155H429.076V148.364C429.076 147.547 428.864 146.912 428.441 146.459C428.017 146.006 427.448 145.78 426.733 145.78C426.017 145.78 425.448 146.006 425.024 146.459C424.601 146.912 424.389 147.547 424.389 148.364V155H420.644V142.78H424.389V144.4C424.769 143.86 425.28 143.437 425.922 143.13C426.565 142.809 427.287 142.648 428.09 142.648ZM440.044 142.605C440.905 142.605 441.657 142.78 442.3 143.13C442.957 143.481 443.46 143.94 443.811 144.51V142.78H447.556V154.978C447.556 156.102 447.329 157.117 446.877 158.022C446.439 158.942 445.76 159.672 444.84 160.212C443.935 160.752 442.803 161.023 441.446 161.023C439.635 161.023 438.168 160.592 437.044 159.73C435.919 158.884 435.277 157.73 435.116 156.27H438.818C438.934 156.737 439.212 157.102 439.65 157.365C440.088 157.643 440.628 157.781 441.27 157.781C442.044 157.781 442.657 157.555 443.11 157.102C443.577 156.664 443.811 155.956 443.811 154.978V153.248C443.446 153.817 442.942 154.285 442.3 154.65C441.657 155 440.905 155.175 440.044 155.175C439.037 155.175 438.124 154.92 437.306 154.409C436.489 153.883 435.839 153.146 435.357 152.197C434.89 151.233 434.657 150.124 434.657 148.868C434.657 147.612 434.89 146.51 435.357 145.561C435.839 144.612 436.489 143.882 437.306 143.371C438.124 142.86 439.037 142.605 440.044 142.605ZM443.811 148.89C443.811 147.955 443.548 147.218 443.022 146.678C442.511 146.138 441.884 145.868 441.139 145.868C440.394 145.868 439.759 146.138 439.234 146.678C438.723 147.204 438.467 147.934 438.467 148.868C438.467 149.802 438.723 150.547 439.234 151.102C439.759 151.642 440.394 151.912 441.139 151.912C441.884 151.912 442.511 151.642 443.022 151.102C443.548 150.562 443.811 149.824 443.811 148.89ZM452.017 155.175C451.36 155.175 450.82 154.985 450.396 154.606C449.988 154.212 449.783 153.73 449.783 153.16C449.783 152.576 449.988 152.087 450.396 151.693C450.82 151.299 451.36 151.102 452.017 151.102C452.659 151.102 453.185 151.299 453.594 151.693C454.017 152.087 454.229 152.576 454.229 153.16C454.229 153.73 454.017 154.212 453.594 154.606C453.185 154.985 452.659 155.175 452.017 155.175Z" fill="#3C3C3C" />
  <path d="M33.0149 182.601V190.094H22.8407V221H13.487V190.094H3.3128V182.601H33.0149ZM66.4815 205.246C66.4815 206.122 66.4268 207.033 66.3174 207.981H45.1485C45.2943 209.878 45.896 211.336 46.9536 212.357C48.0476 213.342 49.3786 213.834 50.9467 213.834C53.2805 213.834 54.9033 212.85 55.815 210.88H65.7704C65.2598 212.886 64.3299 214.691 62.9807 216.296C61.6679 217.9 60.0086 219.158 58.003 220.07C55.9973 220.982 53.7546 221.438 51.2749 221.438C48.2846 221.438 45.6225 220.799 43.2887 219.523C40.9548 218.247 39.1315 216.423 37.8187 214.053C36.5059 211.683 35.8495 208.911 35.8495 205.739C35.8495 202.566 36.4876 199.795 37.764 197.424C39.0768 195.054 40.9001 193.231 43.234 191.954C45.5678 190.678 48.2481 190.04 51.2749 190.04C54.2287 190.04 56.8543 190.66 59.1517 191.9C61.4491 193.139 63.2359 194.908 64.5123 197.205C65.8251 199.503 66.4815 202.183 66.4815 205.246ZM56.909 202.785C56.909 201.18 56.362 199.904 55.268 198.956C54.174 198.008 52.8065 197.534 51.1655 197.534C49.5974 197.534 48.2664 197.99 47.1724 198.901C46.1148 199.813 45.4584 201.107 45.2032 202.785H56.909ZM69.5562 205.739C69.5562 202.566 70.1944 199.795 71.4707 197.424C72.7835 195.054 74.5886 193.231 76.886 191.954C79.2199 190.678 81.8819 190.04 84.8722 190.04C88.7012 190.04 91.892 191.043 94.4447 193.048C97.0338 195.054 98.7295 197.88 99.5318 201.527H89.5764C88.7377 199.193 87.1149 198.026 84.7081 198.026C82.9942 198.026 81.6267 198.701 80.6056 200.05C79.5845 201.363 79.074 203.259 79.074 205.739C79.074 208.218 79.5845 210.133 80.6056 211.482C81.6267 212.795 82.9942 213.451 84.7081 213.451C87.1149 213.451 88.7377 212.284 89.5764 209.951H99.5318C98.7295 213.524 97.0338 216.332 94.4447 218.374C91.8556 220.417 88.6647 221.438 84.8722 221.438C81.8819 221.438 79.2199 220.799 76.886 219.523C74.5886 218.247 72.7835 216.423 71.4707 214.053C70.1944 211.683 69.5562 208.911 69.5562 205.739ZM123.297 190.149C126.798 190.149 129.606 191.316 131.721 193.65C133.836 195.947 134.894 199.12 134.894 203.168V221H125.595V204.426C125.595 202.384 125.066 200.797 124.008 199.667C122.951 198.537 121.529 197.971 119.742 197.971C117.955 197.971 116.533 198.537 115.475 199.667C114.418 200.797 113.889 202.384 113.889 204.426V221H104.535V180.522H113.889V194.58C114.837 193.231 116.132 192.155 117.773 191.353C119.414 190.55 121.255 190.149 123.297 190.149ZM145.77 221.438C144.129 221.438 142.779 220.964 141.722 220.015C140.701 219.031 140.19 217.827 140.19 216.405C140.19 214.947 140.701 213.725 141.722 212.74C142.779 211.756 144.129 211.263 145.77 211.263C147.374 211.263 148.687 211.756 149.708 212.74C150.765 213.725 151.294 214.947 151.294 216.405C151.294 217.827 150.765 219.031 149.708 220.015C148.687 220.964 147.374 221.438 145.77 221.438Z" fill="#734FA1" />
  <path d="M194.878 168.601V207H185.524V183.971L176.936 207H169.388L160.745 183.917V207H151.391V168.601H162.441L173.217 195.185L183.883 168.601H194.878ZM199.744 191.684C199.744 188.548 200.328 185.795 201.495 183.424C202.698 181.054 204.321 179.231 206.363 177.954C208.405 176.678 210.684 176.04 213.201 176.04C215.352 176.04 217.23 176.477 218.835 177.353C220.476 178.228 221.734 179.376 222.609 180.799V176.477H231.963V207H222.609V202.679C221.697 204.101 220.421 205.25 218.78 206.125C217.176 207 215.298 207.438 213.146 207.438C210.666 207.438 208.405 206.799 206.363 205.523C204.321 204.21 202.698 202.369 201.495 199.998C200.328 197.592 199.744 194.82 199.744 191.684ZM222.609 191.739C222.609 189.405 221.953 187.563 220.64 186.214C219.364 184.865 217.795 184.19 215.936 184.19C214.076 184.19 212.49 184.865 211.177 186.214C209.9 187.527 209.262 189.35 209.262 191.684C209.262 194.018 209.9 195.878 211.177 197.263C212.49 198.613 214.076 199.287 215.936 199.287C217.795 199.287 219.364 198.613 220.64 197.263C221.953 195.914 222.609 194.073 222.609 191.739ZM248.083 181.564C249.177 179.887 250.545 178.574 252.186 177.626C253.827 176.641 255.65 176.149 257.656 176.149V186.05H255.085C252.751 186.05 251.001 186.56 249.834 187.581C248.667 188.566 248.083 190.316 248.083 192.833V207H238.73V176.477H248.083V181.564ZM280.78 207L271.481 194.2V207H262.127V166.522H271.481V188.894L280.725 176.477H292.267L279.576 191.793L292.376 207H280.78ZM324.713 191.246C324.713 192.122 324.658 193.033 324.549 193.981H303.38C303.525 195.878 304.127 197.336 305.185 198.357C306.279 199.342 307.61 199.834 309.178 199.834C311.512 199.834 313.134 198.85 314.046 196.88H324.002C323.491 198.886 322.561 200.691 321.212 202.296C319.899 203.9 318.24 205.158 316.234 206.07C314.228 206.982 311.986 207.438 309.506 207.438C306.516 207.438 303.854 206.799 301.52 205.523C299.186 204.247 297.363 202.423 296.05 200.053C294.737 197.683 294.081 194.911 294.081 191.739C294.081 188.566 294.719 185.795 295.995 183.424C297.308 181.054 299.131 179.231 301.465 177.954C303.799 176.678 306.479 176.04 309.506 176.04C312.46 176.04 315.085 176.66 317.383 177.9C319.68 179.139 321.467 180.908 322.743 183.205C324.056 185.503 324.713 188.183 324.713 191.246ZM315.14 188.785C315.14 187.18 314.593 185.904 313.499 184.956C312.405 184.008 311.038 183.534 309.397 183.534C307.829 183.534 306.498 183.99 305.404 184.901C304.346 185.813 303.69 187.107 303.434 188.785H315.14ZM346.659 199.068V207H341.9C338.509 207 335.865 206.179 333.968 204.538C332.072 202.861 331.124 200.144 331.124 196.388V184.245H327.404V176.477H331.124V169.038H340.478V176.477H346.604V184.245H340.478V196.498C340.478 197.409 340.697 198.066 341.134 198.467C341.572 198.868 342.301 199.068 343.322 199.068H346.659ZM356.573 173.305C354.932 173.305 353.583 172.831 352.525 171.883C351.504 170.898 350.994 169.695 350.994 168.272C350.994 166.814 351.504 165.61 352.525 164.662C353.583 163.678 354.932 163.185 356.573 163.185C358.178 163.185 359.491 163.678 360.512 164.662C361.569 165.61 362.098 166.814 362.098 168.272C362.098 169.695 361.569 170.898 360.512 171.883C359.491 172.831 358.178 173.305 356.573 173.305ZM361.223 176.477V207H351.869V176.477H361.223ZM386.599 176.149C390.173 176.149 393.017 177.316 395.132 179.65C397.284 181.947 398.36 185.12 398.36 189.168V207H389.061V190.426C389.061 188.384 388.532 186.797 387.474 185.667C386.417 184.537 384.995 183.971 383.208 183.971C381.421 183.971 379.999 184.537 378.941 185.667C377.884 186.797 377.355 188.384 377.355 190.426V207H368.001V176.477H377.355V180.525C378.303 179.176 379.579 178.118 381.184 177.353C382.788 176.55 384.594 176.149 386.599 176.149ZM416.456 176.04C418.608 176.04 420.486 176.477 422.09 177.353C423.731 178.228 424.989 179.376 425.864 180.799V176.477H435.218V206.945C435.218 209.753 434.653 212.288 433.522 214.549C432.428 216.846 430.733 218.669 428.435 220.019C426.174 221.368 423.348 222.043 419.957 222.043C415.435 222.043 411.77 220.967 408.962 218.815C406.154 216.7 404.55 213.819 404.149 210.173H413.393C413.685 211.34 414.377 212.251 415.471 212.908C416.565 213.6 417.915 213.947 419.519 213.947C421.452 213.947 422.984 213.382 424.114 212.251C425.281 211.157 425.864 209.389 425.864 206.945V202.624C424.953 204.046 423.695 205.213 422.09 206.125C420.486 207 418.608 207.438 416.456 207.438C413.94 207.438 411.661 206.799 409.619 205.523C407.576 204.21 405.954 202.369 404.75 199.998C403.583 197.592 403 194.82 403 191.684C403 188.548 403.583 185.795 404.75 183.424C405.954 181.054 407.576 179.231 409.619 177.954C411.661 176.678 413.94 176.04 416.456 176.04ZM425.864 191.739C425.864 189.405 425.208 187.563 423.895 186.214C422.619 184.865 421.051 184.19 419.191 184.19C417.331 184.19 415.745 184.865 414.432 186.214C413.156 187.527 412.518 189.35 412.518 191.684C412.518 194.018 413.156 195.878 414.432 197.263C415.745 198.613 417.331 199.287 419.191 199.287C421.051 199.287 422.619 198.613 423.895 197.263C425.208 195.914 425.864 194.073 425.864 191.739ZM446.361 207.438C444.72 207.438 443.371 206.964 442.313 206.015C441.292 205.031 440.782 203.827 440.782 202.405C440.782 200.947 441.292 199.725 442.313 198.74C443.371 197.756 444.72 197.263 446.361 197.263C447.966 197.263 449.278 197.756 450.3 198.74C451.357 199.725 451.886 200.947 451.886 202.405C451.886 203.827 451.357 205.031 450.3 206.015C449.278 206.964 447.966 207.438 446.361 207.438Z" fill="#3E4A93" />
  <path d="M50.6638 237.841V241.902H57.2132V245.677H50.6638V250.082H58.0712V254H45.7732V233.923H58.0712V237.841H50.6638ZM68.4248 249.424L71.8854 238.041H77.0906L71.4278 254H65.3932L59.7304 238.041H64.9642L68.4248 249.424ZM94.1928 245.763C94.1928 246.221 94.1642 246.697 94.107 247.193H83.0388C83.115 248.185 83.4296 248.947 83.9826 249.481C84.5546 249.996 85.2505 250.253 86.0704 250.253C87.2906 250.253 88.1391 249.739 88.6158 248.709H93.821C93.554 249.758 93.0678 250.701 92.3624 251.54C91.676 252.379 90.8084 253.037 89.7598 253.514C88.7111 253.99 87.5385 254.229 86.242 254.229C84.6785 254.229 83.2866 253.895 82.0664 253.228C80.8461 252.56 79.8928 251.607 79.2064 250.368C78.52 249.128 78.1768 247.679 78.1768 246.021C78.1768 244.362 78.5104 242.913 79.1778 241.673C79.8642 240.434 80.8175 239.481 82.0378 238.813C83.258 238.146 84.6594 237.812 86.242 237.812C87.7864 237.812 89.1592 238.137 90.3604 238.785C91.5616 239.433 92.4958 240.358 93.1632 241.559C93.8496 242.76 94.1928 244.162 94.1928 245.763ZM89.1878 244.476C89.1878 243.637 88.9018 242.97 88.3298 242.474C87.7578 241.978 87.0428 241.731 86.1848 241.731C85.3649 241.731 84.669 241.969 84.097 242.446C83.544 242.922 83.2008 243.599 83.0674 244.476H89.1878ZM106.497 237.87C108.365 237.87 109.853 238.48 110.958 239.7C112.083 240.901 112.646 242.56 112.646 244.676V254H107.784V245.334C107.784 244.266 107.507 243.437 106.954 242.846C106.401 242.255 105.658 241.959 104.724 241.959C103.789 241.959 103.046 242.255 102.493 242.846C101.94 243.437 101.663 244.266 101.663 245.334V254H96.7728V238.041H101.663V240.158C102.159 239.452 102.826 238.899 103.665 238.499C104.504 238.079 105.448 237.87 106.497 237.87ZM124.939 249.853V254H122.451C120.677 254 119.295 253.571 118.304 252.713C117.312 251.836 116.816 250.415 116.816 248.452V242.102H114.872V238.041H116.816V234.152H121.707V238.041H124.91V242.102H121.707V248.509C121.707 248.985 121.821 249.329 122.05 249.538C122.279 249.748 122.66 249.853 123.194 249.853H124.939ZM134.155 254.229C132.763 254.229 131.524 253.99 130.437 253.514C129.35 253.037 128.492 252.389 127.863 251.569C127.234 250.73 126.881 249.796 126.805 248.766H131.638C131.696 249.319 131.953 249.767 132.411 250.11C132.868 250.454 133.431 250.625 134.098 250.625C134.708 250.625 135.175 250.511 135.499 250.282C135.843 250.034 136.014 249.72 136.014 249.338C136.014 248.881 135.776 248.547 135.299 248.337C134.823 248.108 134.05 247.861 132.983 247.594C131.839 247.327 130.885 247.05 130.123 246.764C129.36 246.459 128.702 245.992 128.149 245.363C127.596 244.715 127.32 243.847 127.32 242.76C127.32 241.845 127.568 241.016 128.063 240.272C128.578 239.509 129.322 238.909 130.294 238.47C131.286 238.032 132.458 237.812 133.812 237.812C135.814 237.812 137.387 238.308 138.531 239.3C139.694 240.291 140.361 241.607 140.533 243.246H136.014C135.938 242.693 135.69 242.255 135.271 241.931C134.87 241.607 134.336 241.445 133.669 241.445C133.097 241.445 132.659 241.559 132.353 241.788C132.048 241.998 131.896 242.293 131.896 242.674C131.896 243.132 132.134 243.475 132.611 243.704C133.107 243.933 133.869 244.162 134.899 244.39C136.081 244.695 137.044 245.001 137.787 245.306C138.531 245.592 139.179 246.068 139.732 246.736C140.304 247.384 140.6 248.261 140.619 249.367C140.619 250.301 140.352 251.14 139.818 251.884C139.303 252.608 138.55 253.18 137.559 253.6C136.586 254.019 135.452 254.229 134.155 254.229ZM145.899 254.229C145.041 254.229 144.335 253.981 143.782 253.485C143.249 252.97 142.982 252.341 142.982 251.598C142.982 250.835 143.249 250.196 143.782 249.681C144.335 249.167 145.041 248.909 145.899 248.909C146.738 248.909 147.424 249.167 147.958 249.681C148.511 250.196 148.787 250.835 148.787 251.598C148.787 252.341 148.511 252.97 147.958 253.485C147.424 253.981 146.738 254.229 145.899 254.229Z" fill="#FAB717" />
  <path d="M204.267 271L197.388 264.045C194.817 266.716 192.07 268.707 189.147 270.017C186.224 271.277 182.923 271.907 179.244 271.907C175.615 271.907 172.389 271.252 169.567 269.942C166.795 268.631 164.628 266.766 163.065 264.347C161.553 261.928 160.797 259.106 160.797 255.88C160.797 252.201 161.83 248.975 163.897 246.203C166.014 243.381 169.113 241.163 173.196 239.55C171.583 237.635 170.424 235.871 169.718 234.258C169.012 232.646 168.66 230.882 168.66 228.966C168.66 226.749 169.214 224.758 170.323 222.994C171.482 221.18 173.12 219.768 175.237 218.76C177.354 217.752 179.798 217.248 182.57 217.248C185.292 217.248 187.66 217.778 189.676 218.836C191.692 219.894 193.204 221.381 194.212 223.296C195.22 225.161 195.674 227.253 195.573 229.571H188.694C188.744 227.505 188.164 225.892 186.955 224.733C185.745 223.523 184.183 222.918 182.268 222.918C180.252 222.918 178.614 223.498 177.354 224.657C176.144 225.766 175.539 227.202 175.539 228.966C175.539 230.478 175.942 231.94 176.749 233.351C177.606 234.762 179.017 236.501 180.982 238.568L196.707 254.368L198.068 252.251L203.209 243.633H210.618L204.418 254.368C203.562 255.88 202.554 257.468 201.394 259.131L213.264 271H204.267ZM179.244 266.01C181.965 266.01 184.41 265.481 186.577 264.423C188.794 263.364 190.886 261.726 192.852 259.509L177.354 243.935C170.902 246.405 167.677 250.311 167.677 255.653C167.677 258.627 168.735 261.096 170.852 263.062C173.019 265.028 175.816 266.01 179.244 266.01Z" fill="#EF503E" />
  <path d="M269.529 228.815C272.755 228.815 275.628 229.496 278.148 230.856C280.668 232.167 282.659 234.158 284.12 236.829C285.582 239.5 286.313 242.751 286.313 246.581V271H279.509V247.564C279.509 243.431 278.475 240.281 276.409 238.114C274.393 235.896 271.646 234.788 268.169 234.788C264.59 234.788 261.743 235.947 259.626 238.265C257.509 240.533 256.451 243.834 256.451 248.169V271H249.647V247.564C249.647 243.431 248.613 240.281 246.547 238.114C244.531 235.896 241.784 234.788 238.307 234.788C234.728 234.788 231.881 235.947 229.764 238.265C227.647 240.533 226.589 243.834 226.589 248.169V271H219.709V229.571H226.589V235.544C227.949 233.376 229.764 231.713 232.032 230.554C234.35 229.395 236.895 228.815 239.667 228.815C243.145 228.815 246.219 229.596 248.891 231.159C251.562 232.721 253.553 235.014 254.863 238.038C256.022 235.115 257.937 232.847 260.609 231.234C263.28 229.622 266.253 228.815 269.529 228.815ZM315.666 271.68C311.785 271.68 308.257 270.798 305.082 269.034C301.957 267.27 299.488 264.776 297.673 261.55C295.909 258.274 295.027 254.494 295.027 250.21C295.027 245.976 295.935 242.247 297.749 239.021C299.614 235.745 302.134 233.25 305.309 231.537C308.484 229.773 312.037 228.891 315.969 228.891C319.9 228.891 323.453 229.773 326.628 231.537C329.803 233.25 332.298 235.72 334.113 238.946C335.977 242.171 336.91 245.926 336.91 250.21C336.91 254.494 335.952 258.274 334.037 261.55C332.172 264.776 329.627 267.27 326.401 269.034C323.176 270.798 319.597 271.68 315.666 271.68ZM315.666 265.632C318.136 265.632 320.454 265.053 322.621 263.894C324.789 262.734 326.527 260.996 327.838 258.677C329.199 256.359 329.879 253.536 329.879 250.21C329.879 246.884 329.224 244.061 327.913 241.743C326.603 239.424 324.889 237.711 322.773 236.602C320.656 235.443 318.363 234.863 315.893 234.863C313.373 234.863 311.055 235.443 308.938 236.602C306.871 237.711 305.208 239.424 303.948 241.743C302.688 244.061 302.058 246.884 302.058 250.21C302.058 253.587 302.663 256.434 303.873 258.753C305.133 261.071 306.796 262.81 308.862 263.969C310.929 265.078 313.197 265.632 315.666 265.632ZM352.835 236.3C354.044 233.931 355.758 232.091 357.976 230.781C360.244 229.47 362.99 228.815 366.216 228.815V235.922H364.402C356.69 235.922 352.835 240.105 352.835 248.471V271H345.955V229.571H352.835V236.3ZM411.958 248.698C411.958 250.008 411.882 251.394 411.731 252.856H378.618C378.87 256.938 380.256 260.139 382.776 262.457C385.346 264.725 388.446 265.859 392.075 265.859C395.048 265.859 397.518 265.179 399.484 263.818C401.5 262.407 402.911 260.542 403.717 258.224H411.126C410.017 262.205 407.8 265.456 404.473 267.976C401.147 270.446 397.014 271.68 392.075 271.68C388.144 271.68 384.616 270.798 381.491 269.034C378.416 267.27 375.997 264.776 374.233 261.55C372.469 258.274 371.587 254.494 371.587 250.21C371.587 245.926 372.444 242.171 374.158 238.946C375.871 235.72 378.265 233.25 381.34 231.537C384.464 229.773 388.043 228.891 392.075 228.891C396.006 228.891 399.484 229.748 402.508 231.461C405.532 233.175 407.85 235.544 409.463 238.568C411.126 241.541 411.958 244.918 411.958 248.698ZM404.851 247.262C404.851 244.641 404.272 242.398 403.112 240.533C401.953 238.618 400.366 237.182 398.35 236.224C396.384 235.216 394.192 234.712 391.772 234.712C388.295 234.712 385.321 235.821 382.852 238.038C380.432 240.256 379.046 243.33 378.694 247.262H404.851Z" fill="#3C3C3C" />
</svg>